# xmcd
#
# Track frame offsets:
#	150
#	13085
#	25227
#	36325
#	51240
#	65180
#	76105
#	90332
#	104165
#	115980
#	128785
#	138755
#	148485
#	162182
#	173830
#	186260
#	197705
#	207725
#	219940
#	233132
#	245605
#	257687
#	269145
#	281762
#	292660
#	301657
#	313577
#
# Disc length: 4343 seconds
#
# Revision: 1
# Processed by: cddbd v1.4PL0 Copyright (c) Steve Scherf et al.
# Submitted via: audiograbber 1.80
#
DISCID=9a10f51b
DTITLE=little jimmy dickens - country boy disc 3
DYEAR=1900
DGENRE=
TTITLE0=no tears in heaven 1952
TTITLE1=he spoke not a word 1952
TTITLE2=that little old country church house 1952
TTITLE3=take up thy cross 1952
TTITLE4=just a closer walk with thee 1952
TTITLE5=the old country preacher 1952
TTITLE6=take my hand precious lord 1952
TTITLE7=i shall not be moved 1952
TTITLE8=wedding bell waltz 1952
TTITLE9=you don't have love at all 1952
TTITLE10=i'm gettin' nowhere fast 1997
TTITLE11=love must be catching 1997
TTITLE12=thick and thin 1953
TTITLE13=teardrops (fell like raindrops) 1953
TTITLE14=sidemeat and cabbage 1953
TTITLE15=forever is too long to be alone 1953
TTITLE16=would you mind 1997
TTITLE17=i'll dance at your wedding (if you'll marry me) 1953
TTITLE18=i'm making love to a stranger 1953
TTITLE19=barefooted little cowboy 1953
TTITLE20=no place like home on christmas 1953
TTITLE21=rockin' with red 1954
TTITLE22=you all come 1954
TTITLE23=out behind the barn 1954
TTITLE24=lovesong of the bayou 1954
TTITLE25=you better not do that 1954
TTITLE26=closing time 1954
EXTD=
EXTT0=
EXTT1=
EXTT2=
EXTT3=
EXTT4=
EXTT5=
EXTT6=
EXTT7=
EXTT8=
EXTT9=
EXTT10=
EXTT11=
EXTT12=
EXTT13=
EXTT14=
EXTT15=
EXTT16=
EXTT17=
EXTT18=
EXTT19=
EXTT20=
EXTT21=
EXTT22=
EXTT23=
EXTT24=
EXTT25=
EXTT26=
PLAYORDER=
